<?xml version="1.0" encoding="utf-8"?>
<!-- Generator: Adobe Illustrator 23.0.6, SVG Export Plug-In . SVG Version: 6.00 Build 0)  -->
<svg version="1.1" id="Layer_1" xmlns="http://www.w3.org/2000/svg" xmlns:xlink="http://www.w3.org/1999/xlink" x="0px" y="0px"
	 viewBox="0 0 300 300" style="enable-background:new 0 0 300 300;" xml:space="preserve">
<style type="text/css">
	.st0{fill:#BAABDC;}
	.st1{fill-rule:evenodd;clip-rule:evenodd;fill:#EDBA68;}
	.st2{fill-rule:evenodd;clip-rule:evenodd;fill:#F2D291;}
	.st3{fill-rule:evenodd;clip-rule:evenodd;fill:#333333;}
	.st4{fill-rule:evenodd;clip-rule:evenodd;fill:#FFFFFF;}
	.st5{fill:#1A1A1A;}
	.st6{fill:#333333;}
</style>
<rect y="143" class="st0" width="300" height="157"/>
<path class="st1" d="M224.5,155.9c2.5-4.6,5.5-8.4,11.6-9.7s17,1.8,17,19c0,17.1-14.3,31.9-23.3,29.8S224.5,155.9,224.5,155.9z"/>
<path class="st2" d="M152.6,42.9c-20.8,0.4-83.6,2.5-84.7,75.6c-1.1,73.2,14.6,100,24.4,110.9s20.1,20.9,40.4,26.1
	c5.3,5.3,10.9,7.3,19.8,8.5c0-18.2,0-36.4,0-54.5c0-2.6,39.9,2.3,39.9-0.3c0-27.5,0-76.6,0-104.1c0-5.3-39.9,3.7-39.9-1.6
	C152.6,83.3,152.6,63.1,152.6,42.9z"/>
<path class="st1" d="M152.6,42.9c20.8,0.4,83.6,2.5,84.7,75.6s-14.6,100-24.4,110.9s-20.1,20.9-40.4,26.1
	c-5.3,5.3-10.9,7.3-19.8,8.5c0-22.9,0-68.3,0-68.3l20-13.2L152.2,146C152.2,146,152.6,73.4,152.6,42.9z"/>
<path class="st3" d="M208.9,78.5c-3.6-6.3-8.2-12.3-28.1-4.5c-19.8,7.8-52.2,26.7-89.2,23.6c-12.7,23.2-8.8,65.8-8.8,65.8
	l-21.2-13.8c0,0-3.4-48.5,4.4-64.1c-6.3-1-11.5-7.3-10.9-22.4c7.8,1.1,12.5,7.3,23-1c10.4-8.4,33.4-36.5,75.1-35.5
	s60,23.5,65.7,32.3c29,24.7,26.5,54.8,24,90.6l-21.2,13.9C223.1,148.5,218.7,95.3,208.9,78.5z"/>
<path class="st2" d="M79.3,155.8c-1.9-4.9-4.2-8.2-10.2-9.5c-6.1-1.3-17,1.8-17,19c0,17.1,14.3,31.9,23.3,29.8
	C84.5,192.9,80.2,160.3,79.3,155.8z"/>
<path class="st4" d="M184.2,209.4c-2.3,15.4-15.6,27.2-31.6,27.2s-29.3-11.8-31.6-27.2H184.2z"/>
<path class="st5" d="M127.2,152.4c0,4.1-3.3,7.4-7.4,7.4s-7.4-3.3-7.4-7.4c0-4.1,3.3-7.4,7.4-7.4S127.2,148.3,127.2,152.4z"/>
<path class="st5" d="M192.3,152.4c0,4.1-3.3,7.4-7.4,7.4c-4.1,0-7.4-3.3-7.4-7.4c0-4.1,3.3-7.4,7.4-7.4S192.3,148.3,192.3,152.4z"/>
<path class="st6" d="M101.1,134.6c0.5,0,1-0.1,1.5-0.4l22.3-10.7c1.9-0.9,2.7-3.2,1.8-5c-0.9-1.9-3.2-2.7-5-1.8l-22.3,10.7
	c-1.9,0.9-2.7,3.2-1.8,5C98.3,133.8,99.7,134.6,101.1,134.6z"/>
<path class="st6" d="M203.5,135.6c-0.5-0.1-1-0.2-1.5-0.5l-21-12.9c-1.8-1.1-2.3-3.4-1.2-5.2c1.1-1.8,3.4-2.3,5.2-1.3l21.1,12.9
	c1.8,1.1,2.3,3.4,1.2,5.2C206.4,135.2,204.9,135.8,203.5,135.6z"/>
</svg>
